<svg width="20" height="20" viewBox="0 0 20 20" fill="none" xmlns="http://www.w3.org/2000/svg">
<g clip-path="url(#clip0_415_1999)">
<path fill-rule="evenodd" clip-rule="evenodd" d="M13.5773 7.78864C13.5773 10.9856 10.9856 13.5773 7.78864 13.5773C4.59166 13.5773 2 10.9856 2 7.78864C2 4.59166 4.59166 2 7.78864 2C10.9856 2 13.5773 4.59166 13.5773 7.78864ZM12.5436 13.9578C11.2282 14.9732 9.57894 15.5773 7.78864 15.5773C3.48709 15.5773 0 12.0902 0 7.78864C0 3.48709 3.48709 0 7.78864 0C12.0902 0 15.5773 3.48709 15.5773 7.78864C15.5773 9.57894 14.9732 11.2282 13.9578 12.5436L19.7069 18.293C20.0975 18.6835 20.0974 19.3167 19.7069 19.7072C19.3164 20.0977 18.6832 20.0977 18.2927 19.7072L12.5436 13.9578Z" fill="#4A4A4A" fill-opacity="0.5"/>
</g>
<defs>
<clipPath id="clip0_415_1999">
<rect width="20" height="20" fill="white"/>
</clipPath>
</defs>
</svg>
